<mxfile host="app.diagrams.net" agent="Mozilla/5.0 (X11; Linux x86_64) AppleWebKit/537.36 (KHTML, like Gecko) Chrome/131.0.0.0 Safari/537.36" version="26.0.4">
  <diagram name="Pagina-1" id="2rPM38t3vV_3UC0qTdCB">
    <mxGraphModel grid="1" page="1" gridSize="10" guides="1" tooltips="1" connect="1" arrows="1" fold="1" pageScale="1" pageWidth="827" pageHeight="1169" math="0" shadow="0">
      <root>
        <mxCell id="0" />
        <mxCell id="1" parent="0" />
        <mxCell id="SLuFs57NL_XZA6eUyowK-1" value="Cliente&lt;div&gt;&lt;br&gt;&lt;/div&gt;" style="shape=umlActor;verticalLabelPosition=bottom;verticalAlign=top;html=1;" vertex="1" parent="1">
          <mxGeometry x="430" y="250" width="30" height="60" as="geometry" />
        </mxCell>
        <mxCell id="SLuFs57NL_XZA6eUyowK-2" value="&lt;div&gt;Dipendente&lt;/div&gt;&lt;div&gt;&lt;br&gt;&lt;/div&gt;" style="shape=umlActor;verticalLabelPosition=bottom;verticalAlign=top;html=1;" vertex="1" parent="1">
          <mxGeometry x="540" y="-240" width="30" height="60" as="geometry" />
        </mxCell>
        <mxCell id="SLuFs57NL_XZA6eUyowK-5" value="" style="rounded=0;whiteSpace=wrap;html=1;" vertex="1" parent="1">
          <mxGeometry x="340" y="30" width="610" height="100" as="geometry" />
        </mxCell>
        <mxCell id="SLuFs57NL_XZA6eUyowK-7" value="Acquisto" style="ellipse;whiteSpace=wrap;html=1;" vertex="1" parent="1">
          <mxGeometry x="495" y="40" width="120" height="80" as="geometry" />
        </mxCell>
        <mxCell id="SLuFs57NL_XZA6eUyowK-8" value="Rimborso" style="ellipse;whiteSpace=wrap;html=1;" vertex="1" parent="1">
          <mxGeometry x="650" y="40" width="120" height="80" as="geometry" />
        </mxCell>
        <mxCell id="SLuFs57NL_XZA6eUyowK-9" value="Gestione Titoli" style="ellipse;whiteSpace=wrap;html=1;" vertex="1" parent="1">
          <mxGeometry x="800" y="40" width="140" height="80" as="geometry" />
        </mxCell>
        <mxCell id="SLuFs57NL_XZA6eUyowK-19" value="&amp;lt;&amp;lt;actor&amp;gt;&amp;gt;&lt;div&gt;Sistema di autenticazione&lt;/div&gt;" style="rounded=0;whiteSpace=wrap;html=1;" vertex="1" parent="1">
          <mxGeometry x="300" y="-100" width="120" height="60" as="geometry" />
        </mxCell>
        <mxCell id="SLuFs57NL_XZA6eUyowK-27" value="Gestione Utenza" style="ellipse;whiteSpace=wrap;html=1;" vertex="1" parent="1">
          <mxGeometry x="349" y="40" width="120" height="80" as="geometry" />
        </mxCell>
        <mxCell id="SLuFs57NL_XZA6eUyowK-41" value="" style="endArrow=none;html=1;rounded=0;exitX=0.489;exitY=0.733;exitDx=0;exitDy=0;exitPerimeter=0;entryX=0.386;entryY=1;entryDx=0;entryDy=0;entryPerimeter=0;" edge="1" parent="1" source="SLuFs57NL_XZA6eUyowK-1" target="SLuFs57NL_XZA6eUyowK-27">
          <mxGeometry width="50" height="50" relative="1" as="geometry">
            <mxPoint x="748" y="320" as="sourcePoint" />
            <mxPoint x="450" y="120" as="targetPoint" />
          </mxGeometry>
        </mxCell>
        <mxCell id="SLuFs57NL_XZA6eUyowK-42" value="" style="endArrow=none;html=1;rounded=0;exitX=0.533;exitY=0.7;exitDx=0;exitDy=0;exitPerimeter=0;entryX=0.786;entryY=0.925;entryDx=0;entryDy=0;entryPerimeter=0;" edge="1" parent="1" source="SLuFs57NL_XZA6eUyowK-1" target="SLuFs57NL_XZA6eUyowK-7">
          <mxGeometry width="50" height="50" relative="1" as="geometry">
            <mxPoint x="528" y="430" as="sourcePoint" />
            <mxPoint x="230" y="230" as="targetPoint" />
          </mxGeometry>
        </mxCell>
        <mxCell id="SLuFs57NL_XZA6eUyowK-47" value="" style="endArrow=none;html=1;rounded=0;entryX=0.575;entryY=0.967;entryDx=0;entryDy=0;entryPerimeter=0;exitX=0.467;exitY=0.667;exitDx=0;exitDy=0;exitPerimeter=0;" edge="1" parent="1" source="SLuFs57NL_XZA6eUyowK-1" target="SLuFs57NL_XZA6eUyowK-8">
          <mxGeometry width="50" height="50" relative="1" as="geometry">
            <mxPoint x="710" y="210" as="sourcePoint" />
            <mxPoint x="760" y="160" as="targetPoint" />
          </mxGeometry>
        </mxCell>
        <mxCell id="SLuFs57NL_XZA6eUyowK-50" value="" style="endArrow=none;html=1;rounded=0;exitX=0.5;exitY=0;exitDx=0;exitDy=0;entryX=0.444;entryY=0.689;entryDx=0;entryDy=0;entryPerimeter=0;" edge="1" parent="1" source="SLuFs57NL_XZA6eUyowK-27" target="SLuFs57NL_XZA6eUyowK-2">
          <mxGeometry width="50" height="50" relative="1" as="geometry">
            <mxPoint x="265" y="50" as="sourcePoint" />
            <mxPoint x="973" y="-38" as="targetPoint" />
          </mxGeometry>
        </mxCell>
        <mxCell id="SLuFs57NL_XZA6eUyowK-54" value="" style="endArrow=none;html=1;rounded=0;entryX=0.467;entryY=0.689;entryDx=0;entryDy=0;entryPerimeter=0;exitX=0.5;exitY=0;exitDx=0;exitDy=0;" edge="1" parent="1" source="SLuFs57NL_XZA6eUyowK-9" target="SLuFs57NL_XZA6eUyowK-2">
          <mxGeometry width="50" height="50" relative="1" as="geometry">
            <mxPoint x="1155" y="40" as="sourcePoint" />
            <mxPoint x="780" y="30" as="targetPoint" />
          </mxGeometry>
        </mxCell>
        <mxCell id="SLuFs57NL_XZA6eUyowK-55" value="&amp;lt;&amp;lt;actor&amp;gt;&amp;gt;&lt;div&gt;Sistema di rimborso&lt;/div&gt;" style="rounded=0;whiteSpace=wrap;html=1;" vertex="1" parent="1">
          <mxGeometry x="650" y="-220" width="120" height="60" as="geometry" />
        </mxCell>
        <mxCell id="SLuFs57NL_XZA6eUyowK-58" value="" style="endArrow=none;html=1;rounded=0;entryX=0.5;entryY=1;entryDx=0;entryDy=0;exitX=0.5;exitY=0;exitDx=0;exitDy=0;" edge="1" parent="1" source="SLuFs57NL_XZA6eUyowK-8" target="SLuFs57NL_XZA6eUyowK-55">
          <mxGeometry width="50" height="50" relative="1" as="geometry">
            <mxPoint x="630" y="80" as="sourcePoint" />
            <mxPoint x="680" y="30" as="targetPoint" />
          </mxGeometry>
        </mxCell>
        <mxCell id="SLuFs57NL_XZA6eUyowK-59" value="" style="endArrow=none;html=1;rounded=0;entryX=0.5;entryY=1;entryDx=0;entryDy=0;exitX=0.292;exitY=0.798;exitDx=0;exitDy=0;exitPerimeter=0;" edge="1" parent="1" source="SLuFs57NL_XZA6eUyowK-1" target="SLuFs57NL_XZA6eUyowK-9">
          <mxGeometry width="50" height="50" relative="1" as="geometry">
            <mxPoint x="630" y="80" as="sourcePoint" />
            <mxPoint x="680" y="30" as="targetPoint" />
          </mxGeometry>
        </mxCell>
        <mxCell id="kI_z8JhprHXKxHyP7Zyj-5" value="" style="endArrow=none;html=1;rounded=0;entryX=0.5;entryY=1;entryDx=0;entryDy=0;exitX=0;exitY=0;exitDx=0;exitDy=0;" edge="1" parent="1" source="SLuFs57NL_XZA6eUyowK-27" target="SLuFs57NL_XZA6eUyowK-19">
          <mxGeometry width="50" height="50" relative="1" as="geometry">
            <mxPoint x="500" y="60" as="sourcePoint" />
            <mxPoint x="550" y="10" as="targetPoint" />
          </mxGeometry>
        </mxCell>
      </root>
    </mxGraphModel>
  </diagram>
</mxfile>
